<?xml version="1.0" encoding="iso-8859-1"?>
<!-- Generator: Adobe Illustrator 18.0.0, SVG Export Plug-In . SVG Version: 6.00 Build 0)  -->
<!DOCTYPE svg PUBLIC "-//W3C//DTD SVG 1.1//EN" "http://www.w3.org/Graphics/SVG/1.1/DTD/svg11.dtd">
<svg version="1.1" id="Capa_1" xmlns="http://www.w3.org/2000/svg" xmlns:xlink="http://www.w3.org/1999/xlink" x="0px" y="0px"
	 viewBox="0 0 297.5 297.5" style="enable-background:new 0 0 297.5 297.5;" xml:space="preserve">
<g>
	<g id="XMLID_15_">
		<g>
			<path style="fill:#FCBF31;" d="M263.095,56.9l-2.07,7.7l-11.59,6.5c-2.35,1.32-4.07,3.53-4.77,6.14l-3.45,12.82l-11.58,6.5
				c-2.35,1.32-4.07,3.53-4.77,6.14l-3.44,12.82l-11.59,6.49c-2.35,1.32-4.07,3.54-4.77,6.14l-3.44,12.82l-11.58,6.5
				c-2.35,1.31-4.07,3.53-4.77,6.13l-3.45,12.82l-11.58,6.5c-2.35,1.32-4.07,3.53-4.77,6.13l-3.44,12.82l-11.58,6.5
				c-2.35,1.32-4.07,3.53-4.77,6.13l-3.45,12.82l-4.58,2.57l-51.24-51.25l144.21-144.21L263.095,56.9z"/>
			<path style="fill:#0B77A5;" d="M128.955,239.51l-22.7,34.04c-1.88,2.82-4.59,3.48-6.03,3.63c-1.45,0.14-4.24,0.02-6.63-2.37
				l-56.37-56.37l35.33-35.33L128.955,239.51z M117.445,248.45c2.1-2.79,1.83-6.7-0.64-9.18l-40.2-40.19
				c-2.73-2.73-7.17-2.74-9.91,0l-15,15c-1.32,1.31-2.05,3.1-2.05,4.96c0,1.85,0.73,3.64,2.05,4.95l42.29,42.3
				c1.32,1.32,3.11,2.05,4.96,2.05c0.16,0,0.33-0.01,0.49-0.02c2.02-0.14,3.89-1.15,5.11-2.77L117.445,248.45z"/>
			<path d="M281.525,47c3.14,3.14,3.76,7.85,1.85,11.61l-4.11,15.26c-0.7,2.61-2.42,4.82-4.77,6.14l-11.58,6.5l-3.45,12.82
				c-0.7,2.61-2.42,4.82-4.77,6.14l-11.58,6.5l-3.45,12.82c-0.69,2.6-2.41,4.81-4.77,6.13l-11.58,6.5l-3.44,12.82
				c-0.7,2.6-2.42,4.82-4.77,6.14l-11.58,6.49l-3.45,12.82c-0.7,2.61-2.42,4.82-4.77,6.14l-11.58,6.49l-3.44,12.82
				c-0.7,2.61-2.42,4.82-4.78,6.14l-11.57,6.49l-3.45,12.82c-0.7,2.6-2.42,4.82-4.77,6.14l-4.35,2.44c0.91,2.83,0.55,6.01-1.19,8.62
				l-27.25,40.87c-4.72,7.08-12.27,11.61-20.73,12.45c-0.94,0.09-1.88,0.14-2.82,0.14c-7.46,0-14.61-2.94-19.95-8.28l-63.45-63.45
				c-3.91-3.91-3.91-10.26,0-14.17L223.545,3.18c1.88-1.87,4.43-2.93,7.08-2.93c2.66,0,5.21,1.06,7.08,2.93L281.525,47z
				 M261.025,64.6l2.07-7.7l-32.47-32.47L86.415,168.64l51.24,51.25l4.58-2.57l3.45-12.82c0.7-2.6,2.42-4.81,4.77-6.13l11.58-6.5
				l3.44-12.82c0.7-2.6,2.42-4.81,4.77-6.13l11.58-6.5l3.45-12.82c0.7-2.6,2.42-4.82,4.77-6.13l11.58-6.5l3.44-12.82
				c0.7-2.6,2.42-4.82,4.77-6.14l11.59-6.49l3.44-12.82c0.7-2.61,2.42-4.82,4.77-6.14l11.58-6.5l3.45-12.82
				c0.7-2.61,2.42-4.82,4.77-6.14L261.025,64.6z M106.255,273.55l22.7-34.04l-56.4-56.4l-35.33,35.33l56.37,56.37
				c2.39,2.39,5.18,2.51,6.63,2.37C101.665,277.03,104.375,276.37,106.255,273.55z"/>
			<path d="M116.805,239.27c2.47,2.48,2.74,6.39,0.64,9.18l-12.9,17.1c-1.22,1.62-3.09,2.63-5.11,2.77
				c-0.16,0.01-0.33,0.02-0.49,0.02c-1.85,0-3.64-0.73-4.96-2.05l-42.29-42.3c-1.32-1.31-2.05-3.1-2.05-4.95
				c0-1.86,0.73-3.65,2.05-4.96l15-15c2.74-2.74,7.18-2.73,9.91,0L116.805,239.27z M102.575,244.88l-30.92-30.93l-5.09,5.09
				l31.64,31.63L102.575,244.88z"/>
		</g>
		<g>
		</g>
	</g>
</g>
<g>
</g>
<g>
</g>
<g>
</g>
<g>
</g>
<g>
</g>
<g>
</g>
<g>
</g>
<g>
</g>
<g>
</g>
<g>
</g>
<g>
</g>
<g>
</g>
<g>
</g>
<g>
</g>
<g>
</g>
</svg>
