<?xml version="1.0" encoding="iso-8859-1"?>
<!-- Generator: Adobe Illustrator 19.0.0, SVG Export Plug-In . SVG Version: 6.00 Build 0)  -->
<svg version="1.1" id="Layer_1" xmlns="http://www.w3.org/2000/svg" xmlns:xlink="http://www.w3.org/1999/xlink" x="0px" y="0px"
	 viewBox="0 0 512 512" style="enable-background:new 0 0 512 512;" xml:space="preserve">
<g>
	<g>
		<path d="M10.585,491.078h-0.137C4.679,491.078,0,495.755,0,501.526s4.679,10.448,10.448,10.448h0.137
			c5.769,0,10.448-4.677,10.448-10.448S16.354,491.078,10.585,491.078z"/>
	</g>
</g>
<g>
	<g>
		<path d="M501.499,491.077h-0.137c-5.769,0-10.448,4.678-10.448,10.448s4.679,10.448,10.448,10.448h0.137
			c5.769,0,10.448-4.677,10.448-10.448S507.268,491.077,501.499,491.077z"/>
	</g>
</g>
<g>
	<g>
		<path d="M294.077,212.118c-6.439,0-11.679,5.239-11.679,11.679c0,6.439,5.24,11.678,11.679,11.678s11.677-5.239,11.678-11.678
			C305.754,217.356,300.516,212.118,294.077,212.118z"/>
	</g>
</g>
<g>
	<g>
		<path d="M217.87,212.118c-6.439,0-11.678,5.239-11.678,11.679c0,6.439,5.239,11.678,11.678,11.678
			c6.439,0,11.679-5.239,11.679-11.678C229.549,217.356,224.309,212.118,217.87,212.118z"/>
	</g>
</g>
<g>
	<g>
		<path d="M266.227,261.344h-20.419c-5.769,0-10.448,4.678-10.448,10.448c0,11.39,9.267,20.658,20.658,20.658
			c11.39,0,20.656-9.267,20.658-20.658C276.675,266.022,271.996,261.344,266.227,261.344z"/>
	</g>
</g>
<g>
	<g>
		<path d="M506.116,14.068L479.379,1.077c-0.003,0.002-0.006,0.004-0.01,0.006c-1.378-0.67-2.92-1.056-4.555-1.056
			c-5.769,0-10.448,4.678-10.448,10.448v48.078c-2.522-0.723-5.181-1.119-7.933-1.119c-15.896,0-28.829,12.932-28.829,28.829
			c0,15.896,12.932,28.829,28.829,28.829c15.896,0,28.829-12.932,28.829-28.829V27.166l11.724,5.696
			c1.47,0.715,3.026,1.053,4.558,1.053c3.874,0,7.597-2.165,9.404-5.884C513.469,22.841,511.306,16.59,506.116,14.068z
			 M456.432,94.196c-4.375,0-7.933-3.559-7.933-7.933c0-4.375,3.559-7.933,7.933-7.933s7.933,3.559,7.933,7.933
			C464.365,90.637,460.806,94.196,456.432,94.196z"/>
	</g>
</g>
<g>
	<g>
		<path d="M111.191,32.059c-2.4-1.985-5.554-2.797-8.617-2.214L38.776,42.006c0,0.002,0,0.003,0,0.005
			c-4.833,0.917-8.49,5.158-8.49,10.258V89.47c-1.515-0.281-3.075-0.436-4.67-0.436c-14.096,0-25.565,11.469-25.565,25.565
			c0,14.096,11.469,25.565,25.565,25.565s25.566-11.469,25.566-25.565V60.914l42.901-8.179v24.573
			c-1.515-0.281-3.074-0.435-4.669-0.435c-14.096,0-25.566,11.469-25.566,25.565s11.47,25.565,25.566,25.565
			s25.565-11.469,25.565-25.565V40.108C114.978,36.994,113.589,34.043,111.191,32.059z M25.616,119.271
			c-2.574,0-4.669-2.095-4.669-4.669c0-2.574,2.095-4.669,4.669-4.669c2.575,0,4.67,2.095,4.67,4.669
			C30.286,117.176,28.19,119.271,25.616,119.271z M89.413,107.109c-2.575,0-4.67-2.095-4.67-4.669s2.095-4.669,4.67-4.669
			c2.574,0,4.669,2.095,4.669,4.669S91.987,107.109,89.413,107.109z"/>
	</g>
</g>
<g>
	<g>
		<path d="M88.927,226.135c-5.769,0-10.448,4.677-10.448,10.448v0.171c0,5.77,4.679,10.448,10.448,10.448
			c5.77,0,10.448-4.677,10.448-10.448v-0.171C99.375,230.812,94.697,226.135,88.927,226.135z"/>
	</g>
</g>
<g>
	<g>
		<path d="M456.624,273.994c-30.534,0-55.374,24.841-55.374,55.374c0,20.666,11.387,38.711,28.209,48.225V456.6
			c0,14.978,12.185,27.165,27.164,27.165c14.979,0,27.165-12.186,27.165-27.165v-79.006c16.822-9.514,28.209-27.559,28.209-48.225
			C511.998,298.835,487.158,273.994,456.624,273.994z M456.624,294.89c15.37,0,28.419,10.112,32.855,24.03h-65.711
			C428.205,305.002,441.254,294.89,456.624,294.89z M462.893,456.6c0,3.398-2.871,6.269-6.269,6.269
			c-3.398,0-6.269-2.871-6.269-6.269v-72.222c2.059,0.233,4.148,0.365,6.269,0.365s4.209-0.132,6.269-0.365V456.6z M456.624,363.846
			c-15.37,0-28.419-10.112-32.855-24.03h65.711C485.043,353.735,471.994,363.846,456.624,363.846z"/>
	</g>
</g>
<g>
	<g>
		<path d="M467.612,491.078h-58.016v-70.644c0-20.366-12.291-39.709-29.887-47.042l-31.957-13.316
			c6.564-6.433,14.789-15.552,22.992-27.454c16.304-23.656,35.739-63.418,35.739-118.502c0-50.385-14.603-97.452-41.119-132.533
			C337.485,44.703,298.701,24.39,256.158,24.39h-0.185c-42.544,0-81.327,20.313-109.206,57.197
			c-26.517,35.081-41.119,82.148-41.119,132.533c0,27.588,4.876,51.332,11.79,71.133H99.376v-13.462
			c0-5.77-4.679-10.448-10.448-10.448s-10.448,4.677-10.448,10.448v13.462H10.499c-5.769,0-10.448,4.677-10.448,10.448v99.255
			c0,5.77,4.679,10.448,10.448,10.448H78.48v85.673H44.436c-5.769,0-10.448,4.677-10.448,10.448s4.679,10.448,10.448,10.448h423.176
			c5.769,0,10.448-4.677,10.448-10.448S473.383,491.078,467.612,491.078z M78.48,326.714l-7.838-4.656
			c-4.963-2.947-11.374-1.313-14.319,3.647c-2.946,4.961-1.314,11.371,3.646,14.319l8.499,5.048l-8.499,5.048
			c-4.961,2.947-6.594,9.358-3.646,14.319c1.953,3.288,5.427,5.114,8.992,5.114c1.814,0,3.653-0.473,5.326-1.467l7.838-4.656v21.079
			H20.947v-0.001V306.15H78.48V326.714z M371.672,392.68c7.249,3.02,13.162,10.438,15.695,18.905H124.579
			c2.534-8.467,8.447-15.885,15.696-18.905l67.241-28.017c0.475-0.199,0.935-0.421,1.395-0.644
			c12.005,13.109,29.014,20.721,47.063,20.721c18.048,0,35.058-7.612,47.063-20.721c0.46,0.223,0.919,0.445,1.396,0.644
			L371.672,392.68z M289.081,348.211c-8.125,9.848-20.218,15.635-33.107,15.635c-12.891,0-24.983-5.787-33.107-15.635
			c0.932-2.767,1.445-5.706,1.445-8.74v-4.274l7.939,4.539c7.334,4.763,15.529,7.144,23.725,7.144
			c8.198,0,16.396-2.383,23.731-7.148l7.931-4.547v4.288C287.637,342.505,288.149,345.445,289.081,348.211z M269.044,321.757
			c-0.19,0.11-0.377,0.225-0.56,0.346c-7.834,5.173-17.184,5.173-25.017,0c-0.187-0.123-0.377-0.241-0.573-0.352l-56.259-32.162
			c-7.984-5.406-13.283-15.292-14.245-26.569v-83.852h56.47c28.569,0,48.056-13.436,59.711-25.332
			c5.17,12.309,14.266,25.332,29.619,25.332h21.367v83.851c-0.949,11.048-6.442,21.173-14.418,26.574L269.044,321.757z
			 M255.973,45.286h0.184c73.787,0,129.43,72.583,129.43,168.834c0,39.566-10.609,75.192-31.533,105.893
			c-10.805,15.854-21.734,26.236-27.554,31.21l-14.033-5.847c-2.39-0.996-3.936-3.313-3.936-5.904v-16.269l27.311-15.659
			c0.19-0.109,0.377-0.225,0.56-0.346c13.674-9.031,22.653-25.091,24.019-42.961c0.021-0.264,0.03-0.531,0.03-0.796v-94.721
			c0-5.77-4.679-10.448-10.448-10.448h-31.815c-6.4,0-13.067-16.77-15.027-28.777c-0.713-4.449-4.196-7.94-8.643-8.662
			c-4.451-0.72-8.857,1.49-10.939,5.485c-0.166,0.32-17.089,31.954-54.721,31.954h-66.917c-5.769,0-10.448,4.677-10.448,10.448
			v94.721c0,0.265,0.01,0.532,0.03,0.796c1.372,17.943,10.288,34.003,23.85,42.961c0.187,0.123,0.377,0.24,0.573,0.352
			l27.466,15.702v16.219c0,2.59-1.545,4.907-3.936,5.904l-13.917,5.799c-14.289-12.222-59.018-56.899-59.018-137.054
			C126.544,117.87,182.186,45.286,255.973,45.286z M102.351,420.434v70.643h-2.975v-85.673h5.207
			C103.133,410.233,102.351,415.3,102.351,420.434z M116.5,384.509H99.376v-21.078l7.837,4.656c1.674,0.994,3.512,1.467,5.326,1.467
			c3.566,0,7.04-1.826,8.992-5.114c2.946-4.961,1.314-11.371-3.646-14.319l-8.499-5.048l8.499-5.048
			c4.961-2.947,6.594-9.358,3.646-14.319c-2.947-4.961-9.358-6.595-14.319-3.647l-7.837,4.656V306.15h26.692v0
			c4.963,10.34,10.289,19.175,15.319,26.473c8.181,11.87,16.382,20.971,22.937,27.401l-32.087,13.369
			C126.296,375.869,120.964,379.718,116.5,384.509z M388.7,491.078H123.246v-58.595H388.7V491.078z"/>
	</g>
</g>
<g>
</g>
<g>
</g>
<g>
</g>
<g>
</g>
<g>
</g>
<g>
</g>
<g>
</g>
<g>
</g>
<g>
</g>
<g>
</g>
<g>
</g>
<g>
</g>
<g>
</g>
<g>
</g>
<g>
</g>
</svg>
