<?xml version="1.0" encoding="iso-8859-1"?>
<!-- Generator: Adobe Illustrator 19.0.0, SVG Export Plug-In . SVG Version: 6.00 Build 0)  -->
<svg version="1.1" id="Layer_1" xmlns="http://www.w3.org/2000/svg" xmlns:xlink="http://www.w3.org/1999/xlink" x="0px" y="0px"
	 viewBox="0 0 512.276 512.276" style="enable-background:new 0 0 512.276 512.276;" xml:space="preserve">
<g transform="translate(1 1)">
	<path style="fill:#FFE100;" d="M28.867,187.633c0,0-18.773,98.133-21.333,107.52c0,0,442.88,33.28,484.693-16.213
		c0,0,17.067-41.813-107.52-37.547L201.24,155.206C201.24,155.206,139.8,252.486,28.867,187.633"/>
	<path style="fill:#FDCC00;" d="M492.227,268.7L492.227,268.7c1.707,5.973,0,11.093,0,11.093
		c-41.813,49.493-484.693,15.36-484.693,15.36v51.2c0,0,205.653,4.267,338.773,8.533c81.067,2.56,122.88-16.213,144.213-30.72
		c11.093-8.533,14.507-23.04,10.24-35.84L492.227,268.7z"/>
	<g>
		<path style="fill:#FFFFFF;" d="M33.133,295.153c2.56-7.68,14.507-69.973,19.627-96.427c-7.68-2.56-15.36-5.973-23.893-11.093
			c0,0-18.773,98.133-21.333,107.52H33.133z"/>
		<path style="fill:#FFFFFF;" d="M33.133,346.353V296.86c-16.213-0.853-25.6-1.707-25.6-1.707v51.2H33.133z"/>
	</g>
	<polygon style="fill:#E4667F;" points="203.8,209.82 214.893,228.593 237.933,232.006 221.72,249.926 225.987,272.966 
		203.8,261.02 181.613,272.966 185.88,249.926 169.667,232.006 192.707,228.593 	"/>
	<path style="fill:#00DA6C;" d="M374.467,304.54c58.88-3.413,105.813-10.24,117.76-24.747c0,0,17.92-41.813-107.52-37.547
		L374.467,304.54L374.467,304.54z"/>
	<path style="fill:#FFA800;" d="M501.613,290.886l-8.533-19.627l0,0c1.707,5.973,0,11.093,0,11.093
		c-3.413,4.267-9.387,7.68-17.067,10.24c4.267,12.8,0.853,26.453-10.24,34.133c-17.92,12.8-52.907,29.013-116.907,30.72
		c80.213,2.56,122.027-16.213,142.507-30.72C503.32,318.193,505.88,303.686,501.613,290.886"/>
	<path style="fill:#00AD55;" d="M388.12,243.953c93.867,2.56,78.507,37.547,78.507,37.547c-10.24,11.947-45.227,19.627-92.16,23.04
		v0.853v0.853c58.88-3.413,105.813-10.24,117.76-24.747C493.08,281.5,510.147,240.54,388.12,243.953"/>
	<path d="M28.867,196.166c-0.853,0-0.853,0-1.707,0C10.093,193.606-1,174.833-1,158.62c0-5.12,3.413-8.533,8.533-8.533
		s8.533,3.413,8.533,8.533c0,9.387,6.827,19.627,14.507,20.48c4.267,0.853,7.68,5.12,6.827,10.24
		C36.547,193.606,33.133,196.166,28.867,196.166z"/>
	<path d="M285.72,314.78c-130.56,0-277.333-11.093-279.04-11.093c-2.56,0-5.12-1.707-6.827-3.413c-0.853-2.56-0.853-5.12,0-7.68
		c1.707-5.973,13.653-68.267,20.48-106.667c0.853-2.56,2.56-5.12,5.12-5.973c2.56-0.853,5.12-0.853,7.68,0
		c23.893,14.507,47.787,21.333,69.973,21.333c58.027,0,90.453-49.493,91.307-50.347c2.56-3.413,6.827-5.12,11.093-3.413
		l180.907,85.333c5.12,0,10.24,0,14.507,0c52.053,0,84.48,8.533,95.573,26.453c7.68,11.947,3.413,22.187,3.413,23.04
		s-0.853,1.707-1.707,2.56C487.96,297.713,453.827,314.78,285.72,314.78z M17.773,287.473c34.987,2.56,157.013,10.24,267.947,10.24
		c153.6,0,189.44-15.36,197.973-23.04c0-1.707,0-3.413-1.707-6.827c-4.267-5.973-19.627-18.773-81.067-18.773
		c-5.12,0-10.24,0-16.213,0c-1.707,0-2.56,0-4.267-0.853L203.8,166.3c-11.093,15.36-45.227,52.053-100.693,52.053
		c-22.187,0-44.373-5.973-67.413-17.067C31.427,222.62,22.893,266.993,17.773,287.473z"/>
	<path d="M360.813,363.42c-5.12,0-9.387,0-14.507,0c-131.413-4.267-337.067-8.533-338.773-8.533c-4.267,0-8.533-4.267-8.533-8.533
		v-51.2c0-2.56,0.853-4.267,2.56-5.973s4.267-2.56,6.827-2.56c1.707,0,147.627,11.093,278.187,11.093
		c152.747,0,189.44-15.36,197.973-23.04c0-0.853,0-2.56-0.853-3.413c-0.853-2.56-0.853-5.12,0.853-7.68
		c1.707-2.56,4.267-3.413,6.827-3.413c3.413,0,6.827,1.707,8.533,5.12l8.533,19.627c6.827,17.067,0.853,35.84-12.8,46.08
		C474.307,345.5,434.2,363.42,360.813,363.42z M16.067,337.82c40.107,0.853,214.187,5.12,331.093,8.533
		c78.507,2.56,118.613-15.36,138.24-29.013c7.68-5.973,10.24-16.213,6.827-25.6v-0.853c-17.067,11.947-62.293,24.747-206.507,24.747
		C173.933,314.78,50.2,307.1,16.067,304.54V337.82z"/>
	<path d="M374.467,313.073c-2.56,0-4.267-0.853-5.973-2.56s-2.56-4.267-2.56-5.973v-0.853c0-0.853,0-0.853,0-1.707l10.24-62.293
		c0.853-4.267,4.267-6.827,8.533-6.827c5.973,0,11.093,0,17.067,0c52.053,0,84.48,8.533,95.573,26.453
		c7.68,11.947,3.413,22.187,3.413,23.04s-0.853,1.707-1.707,2.56C490.52,294.3,468.333,307.953,374.467,313.073L374.467,313.073z
		 M391.533,249.926l-7.68,45.227c70.827-4.267,93.013-14.507,99.84-20.48c0-1.707,0-3.413-1.707-6.827
		C477.72,262.726,459.8,249.073,391.533,249.926z"/>
	<path d="M220.867,195.313c-1.707,0-2.56,0-4.267-0.853c-4.267-2.56-5.12-7.68-3.413-11.947l17.067-28.16
		c2.56-4.267,7.68-5.12,11.947-3.413c4.267,2.56,5.12,7.68,3.413,11.947l-17.067,28.16
		C226.84,194.46,223.427,195.313,220.867,195.313z"/>
	<path d="M255,212.38c-1.707,0-2.56,0-4.267-0.853c-4.267-2.56-5.12-7.68-3.413-11.947l17.067-28.16
		c2.56-4.267,7.68-5.12,11.947-3.413c4.267,2.56,5.12,7.68,3.413,11.947l-17.067,28.16C260.973,211.526,257.56,212.38,255,212.38z"
		/>
	<path d="M289.133,229.446c-1.707,0-2.56,0-4.267-0.853c-4.267-2.56-5.12-7.68-3.413-11.947l17.067-28.16
		c2.56-4.267,7.68-5.12,11.947-3.413c4.267,2.56,5.12,7.68,3.413,11.947l-17.067,28.16
		C295.107,228.593,291.693,229.446,289.133,229.446z"/>
	<path d="M323.267,246.513c-1.707,0-2.56,0-4.267-0.853c-4.267-2.56-5.12-7.68-3.413-11.947l17.067-28.16
		c2.56-4.267,7.68-5.12,11.947-3.413c4.267,2.56,5.12,7.68,3.413,11.947l-17.067,28.16
		C329.24,245.66,325.827,246.513,323.267,246.513z"/>
	<path d="M225.987,281.5c-1.707,0-2.56,0-4.267-0.853l-17.92-10.24l-18.773,9.387c-2.56,1.707-6.827,1.707-9.387-0.853
		c-2.56-1.707-4.267-5.12-3.413-8.533l3.413-18.773l-12.8-14.507c-1.707-2.56-2.56-5.973-1.707-8.533
		c0.853-2.56,3.413-5.12,6.827-5.973l18.773-3.413l9.387-15.36c3.413-5.12,11.947-5.12,14.507,0l9.387,15.36l18.773,3.413
		c3.413,0.853,5.973,2.56,6.827,5.973c0.853,2.56,0,5.973-1.707,8.533l-12.8,15.36l3.413,18.773
		c0.853,3.413-0.853,6.827-3.413,8.533C229.4,280.646,227.693,281.5,225.987,281.5z M203.8,252.486c1.707,0,2.56,0,4.267,0.853
		l6.827,3.413l-0.853-5.973c-0.853-2.56,0-5.12,1.707-7.68l5.12-5.973l-7.68-0.853c-2.56,0-4.267-1.707-5.973-4.267l-3.413-5.973
		l-4.267,6.827c-1.707,2.56-3.413,3.413-5.973,4.267l-6.827,0.853l5.12,5.973c1.707,1.707,2.56,4.267,1.707,7.68l-0.853,5.973
		l6.827-3.413C201.24,252.486,202.093,252.486,203.8,252.486z"/>
</g>
<g>
</g>
<g>
</g>
<g>
</g>
<g>
</g>
<g>
</g>
<g>
</g>
<g>
</g>
<g>
</g>
<g>
</g>
<g>
</g>
<g>
</g>
<g>
</g>
<g>
</g>
<g>
</g>
<g>
</g>
</svg>
