<svg height="512" viewBox="0 0 128 128" width="512" xmlns="http://www.w3.org/2000/svg"><g><g><path d="m103.81 71.67c0 .96-.02 1.9-.05 2.83a61.41 61.41 0 0 1 -5.65 24.75 44.418 44.418 0 0 1 -3.23 5.63 37 37 0 0 1 -61.76 0 44.418 44.418 0 0 1 -3.23-5.63 61.41 61.41 0 0 1 -5.65-24.75c-.03-.93-.05-1.87-.05-2.83 0-1.44.04-2.88.11-4.32a93.641 93.641 0 0 1 7.11-31.29c.88-2.07 1.83-4.07 2.83-6 7.3-13.88 17.93-23.56 29.76-23.56s22.46 9.68 29.76 23.56c1 1.93 1.95 3.93 2.83 6a93.641 93.641 0 0 1 7.11 31.29c.07 1.44.11 2.88.11 4.32z" fill="#fdd82e"/><path d="m96.59 36.06h-65.18c.88-2.07 1.83-4.07 2.83-6h59.52c1 1.93 1.95 3.93 2.83 6z" fill="#efeffb"/><circle cx="55.979" cy="47.936" fill="#efeffb" r="3"/><path d="m120.908 86.038c-.029.228-.061.466-.1.693a54.09 54.09 0 0 1 -4.23 15.019 41.811 41.811 0 0 1 -3.214 5.772c-6.978 10.425-17.675 15.19-28.969 13.716s-20.41-8.826-24.478-20.693a41.7 41.7 0 0 1 -1.624-6.4 54.025 54.025 0 0 1 -.233-15.6c.02-.23.051-.468.081-.7.239-1.834.559-3.668.938-5.485a74.858 74.858 0 0 1 4.686-14.495 65.207 65.207 0 0 1 2.903-5.865c7.438-13.48 18.537-22.872 29.563-21.433s19.343 13.366 23.08 28.306c.525 2.085.961 4.23 1.291 6.411a74.79 74.79 0 0 1 .808 15.216c-.101 1.849-.262 3.7-.502 5.538z" fill="#f7502f"/><g fill="#efeffb"><path d="m120.908 86.038c-.029.228-.061.466-.1.693-3.751-1.165-5.743-3.594-7.407-5.606-1.722-2.1-2.958-3.6-6.022-4s-4.654.733-6.847 2.313c-2.549 1.835-5.721 4.114-11.135 3.407s-7.885-3.722-9.877-6.15c-1.714-2.095-2.96-3.595-6.02-3.995s-4.644.735-6.847 2.313c-2.116 1.529-4.665 3.364-8.589 3.528.02-.23.051-.468.081-.7.239-1.834.559-3.668.938-5.485a11.681 11.681 0 0 0 4.07-2.211c2.549-1.836 5.72-4.1 11.124-3.4s7.9 3.713 9.878 6.14c1.724 2.091 2.968 3.605 6.023 4s4.655-.744 6.858-2.322c2.539-1.837 5.709-4.106 11.123-3.4s7.886 3.712 9.879 6.141a11.611 11.611 0 0 0 3.372 3.196c-.101 1.849-.262 3.7-.502 5.538z"/><path d="m120.6 65.284c-.219-.019-.439-.037-.667-.067-4.819-.629-6.961-3.843-8.531-6.186-1.485-2.221-2.283-3.294-4.315-3.559s-3.08.566-5.085 2.332c-2.109 1.862-5 4.419-9.823 3.79s-6.971-3.845-8.531-6.187c-1.485-2.22-2.283-3.293-4.316-3.558s-3.079.566-5.084 2.331c-2.109 1.863-5 4.42-9.824 3.791-.228-.03-.445-.069-.661-.107a65.207 65.207 0 0 1 2.905-5.864c1.2-.237 2.161-1.029 3.621-2.321 2.109-1.863 5-4.41 9.822-3.781s6.962 3.834 8.532 6.177c1.475 2.219 2.282 3.3 4.315 3.568s3.08-.576 5.085-2.341c2.109-1.863 5-4.41 9.822-3.78s6.963 3.833 8.533 6.176c1.089 1.625 1.8 2.646 2.913 3.174.525 2.086.961 4.228 1.289 6.412z"/><path d="m116.578 101.75a41.811 41.811 0 0 1 -3.214 5.772c-4.107-.909-6.056-3.826-7.508-5.992-1.485-2.221-2.281-3.3-4.314-3.568s-3.081.576-5.086 2.341c-2.109 1.863-5 4.409-9.822 3.78s-6.972-3.835-8.532-6.176c-1.485-2.221-2.282-3.3-4.315-3.569s-3.08.576-5.085 2.342c-1.95 1.722-4.582 4.041-8.785 3.865a41.7 41.7 0 0 1 -1.624-6.4 4.609 4.609 0 0 0 1.363.37c2.023.264 3.079-.567 5.085-2.332 2.109-1.863 5-4.419 9.823-3.79s6.961 3.843 8.531 6.186c1.475 2.22 2.283 3.293 4.316 3.559s3.079-.57 5.089-2.338c2.109-1.862 5-4.419 9.824-3.79s6.961 3.843 8.531 6.186c1.485 2.221 2.283 3.294 4.315 3.559a4.588 4.588 0 0 0 1.408-.005z"/></g><path d="m64.927 84.929c0 23.3-13.08 36.571-29.214 36.571s-29.213-13.266-29.213-36.571 13.079-47.823 29.213-47.823 29.214 24.518 29.214 47.823z" fill="#3ba9fd"/><g fill="#efeffb"><circle cx="35.713" cy="55.543" r="3"/><circle cx="50.346" cy="67" r="3"/><circle cx="52.979" cy="89.731" r="3"/><circle cx="21.081" cy="67" r="3"/><circle cx="18.448" cy="89.731" r="3"/><circle cx="35.713" cy="103.808" r="3"/><circle cx="35.713" cy="80.731" r="3"/></g></g><g fill="#251333"><path d="m53.72 13.784a31.359 31.359 0 0 0 -5.582 4.3 1.75 1.75 0 1 0 2.416 2.532 27.862 27.862 0 0 1 4.953-3.818 1.75 1.75 0 1 0 -1.787-3.009z"/><path d="m122.33 65.018c-.339-2.238-.784-4.451-1.323-6.573-4.278-17.092-13.455-28.162-24.55-29.611-.479-.062-.96-.1-1.441-.126a62.556 62.556 0 0 0 -8.716-12.573 1.75 1.75 0 0 0 -2.588 2.356 57.2 57.2 0 0 1 7.075 9.819h-53.581c7.402-12.789 17.061-20.06 26.794-20.06 4.951 0 9.848 1.833 14.552 5.448a1.75 1.75 0 1 0 2.133-2.775c-5.331-4.096-10.945-6.173-16.685-6.173-11.71 0-23.122 8.928-31.313 24.505-1.054 2.034-2.025 4.093-2.891 6.128-.162.386-.319.776-.479 1.164-4.769 1.777-9.323 5.507-13.233 10.933a1.75 1.75 0 1 0 2.84 2.046c4.957-6.88 10.92-10.67 16.789-10.67 9.785 0 19.2 10.76 24.052 25.248a1.741 1.741 0 0 0 .117.36 66.079 66.079 0 0 1 3.3 20.465c0 20.828-11.037 34.821-27.464 34.821s-27.468-13.993-27.468-34.821a66.287 66.287 0 0 1 4.468-23.729 1.75 1.75 0 1 0 -3.262-1.266 69.807 69.807 0 0 0 -4.706 25c0 22.921 12.443 38.321 30.963 38.321a28.961 28.961 0 0 0 13.148-3.02 39.522 39.522 0 0 0 27.984.879 31.639 31.639 0 0 0 7.319 1.867 33.116 33.116 0 0 0 4.268.279c10.562 0 20.013-5.231 26.382-14.761a43.78 43.78 0 0 0 3.358-6.016 55.619 55.619 0 0 0 4.361-15.448c.045-.254.078-.508.113-.763.235-1.8.4-3.655.512-5.682a76.409 76.409 0 0 0 -.828-15.572zm-9.734 40.45c-2.666-1-4.1-3.146-5.283-4.914-1.479-2.2-2.648-3.944-5.551-4.33s-4.47 1.012-6.462 2.766c-1.954 1.731-4.392 3.884-8.444 3.355s-5.851-3.233-7.3-5.405c-1.476-2.215-2.641-3.964-5.536-4.335s-4.481 1-6.48 2.765a23.715 23.715 0 0 1 -2.167 1.743q.417-1.839.7-3.778c2.025-1.782 4.347-3.72 8.256-3.21 4.04.528 5.854 3.245 7.31 5.425 1.408 2.115 2.624 3.942 5.536 4.314 2.907.391 4.564-1.066 6.481-2.754 1.958-1.735 4.387-3.893 8.434-3.365 4.013.525 5.75 3.115 7.3 5.426 1.222 1.833 2.3 3.445 4.47 4.093-.401.757-.822 1.494-1.26 2.204zm-49.296-41.649c.472-1.352 1-2.7 1.559-4.048.356.029.706.048 1.044.048 4.6 0 7.508-2.566 9.5-4.325 1.948-1.715 2.479-2.073 3.7-1.91s1.645.638 3.087 2.8a1.75 1.75 0 1 0 2.91-1.944c-1.471-2.2-2.634-3.942-5.543-4.323s-4.48 1-6.469 2.756c-1.743 1.538-3.688 3.241-6.671 3.423q.688-1.421 1.455-2.828a11.922 11.922 0 0 0 3.572-2.473c1.958-1.73 4.406-3.88 8.437-3.356s5.766 3.119 7.3 5.409c1.41 2.122 2.627 3.955 5.545 4.335 2.9.376 4.554-1.077 6.47-2.764 1.96-1.73 4.4-3.884 8.438-3.357s5.768 3.121 7.3 5.415a11.988 11.988 0 0 0 2.825 3.307q.364 1.508.661 3.064c-2.805-.945-4.272-3.051-5.57-4.986-1.472-2.2-2.636-3.942-5.544-4.321s-4.479 1-6.469 2.755c-2.067 1.824-4.4 3.894-8.439 3.366a8.474 8.474 0 0 1 -3.14-1.016 1.75 1.75 0 0 0 -1.721 3.048 12.082 12.082 0 0 0 4.408 1.439c5.607.734 8.978-2.244 11.206-4.212 1.95-1.717 2.486-2.07 3.7-1.909s1.644.637 3.1 2.817c1.585 2.366 3.956 5.885 9.075 6.814a73.026 73.026 0 0 1 .709 9.8c-.122-.146-.236-.281-.365-.438-2.062-2.517-4.885-5.964-11-6.767-6.148-.792-9.751 1.814-12.374 3.714-2.08 1.494-3.223 2.318-5.613 2.007-2.373-.311-3.269-1.4-4.89-3.37-2.051-2.517-4.861-5.965-11.01-6.77a14.769 14.769 0 0 0 -10.172 2.221c-.306-1.154-.647-2.293-1.011-3.421zm1.863 7.045a11.593 11.593 0 0 1 8.876-2.379c4.77.625 6.886 3.221 8.757 5.517 1.749 2.125 3.4 4.132 7.145 4.623s5.774-.958 8.113-2.638c2.392-1.733 5.1-3.7 9.876-3.082 4.737.622 6.866 3.221 8.768 5.544a16.484 16.484 0 0 0 2.9 2.958c-.065.97-.144 1.905-.24 2.814a15.849 15.849 0 0 1 -4.6-4.2c-1.739-2.132-3.382-4.147-7.152-4.639s-5.863 1.022-8.1 2.626c-2.412 1.741-5.15 3.71-9.881 3.093s-6.866-3.221-8.751-5.522c-1.735-2.121-3.374-4.124-7.146-4.617-3.727-.486-5.822.989-8.046 2.586-.153-.896-.328-1.792-.516-2.684zm49.772-19.813a11.724 11.724 0 0 0 -6.846-3.264c-5.61-.731-8.981 2.238-11.2 4.2-1.956 1.722-2.491 2.078-3.7 1.92-1.164-.152-1.567-.518-3.092-2.815-1.656-2.469-4.156-6.2-9.755-6.93a11.717 11.717 0 0 0 -7.425 1.381c7-9.283 15.431-14.241 23.091-13.24s14.537 7.965 18.93 18.748zm-80.822-16.741c.387-.835.8-1.668 1.213-2.5h47.425a32.4 32.4 0 0 0 -3.8 2.5zm10.813 3.5h30.026a58.867 58.867 0 0 0 -9.81 13.337c-1.1 1.978-2.109 4-2.984 6.008-.238.541-.453 1.09-.678 1.636a59.991 59.991 0 0 0 -3.236-6.7 4.734 4.734 0 1 0 -5.384-7.713 29.341 29.341 0 0 0 -7.934-6.568zm11.5 11.29q-.667-1.019-1.372-1.976a1.237 1.237 0 0 1 .925-.434 1.246 1.246 0 0 1 .447 2.41zm7.574 70.65a35.419 35.419 0 0 1 -11.345-1.832 30.554 30.554 0 0 0 8.709-10.069 31.263 31.263 0 0 0 10.8 10.968 35.92 35.92 0 0 1 -8.164.933zm20.617-.245a27.158 27.158 0 0 1 -21.383-15.553c.3-.733.575-1.49.837-2.257a16.771 16.771 0 0 0 5.785-3.7c1.957-1.724 2.492-2.076 3.711-1.918s1.63.634 3.077 2.805c1.646 2.469 4.134 6.2 9.759 6.934 5.642.743 9.131-2.357 11.213-4.2 1.953-1.719 2.488-2.075 3.694-1.919s1.641.642 3.095 2.806a15.125 15.125 0 0 0 6.156 5.914c-6.445 8.383-15.786 12.409-25.944 11.088zm30.8-19.479h-.02c-1.231-.163-1.656-.641-3.116-2.829-1.652-2.465-4.151-6.191-9.736-6.922-5.612-.731-8.982 2.245-11.2 4.212-2.039 1.8-2.552 2.064-3.712 1.908s-1.58-.537-3.077-2.786c-1.654-2.477-4.154-6.219-9.769-6.953a11.776 11.776 0 0 0 -8.222 1.866c.07-1.176.113-2.371.113-3.592a65.969 65.969 0 0 0 -.444-7.492c.512-.343 1-.686 1.438-1.006 2.072-1.488 3.208-2.31 5.6-1.995s3.284 1.4 4.893 3.363c2.068 2.526 4.9 5.987 11.007 6.776s9.733-1.815 12.377-3.723c2.074-1.488 3.214-2.307 5.6-2s3.278 1.4 4.908 3.4a17.805 17.805 0 0 0 6.8 5.616 52.081 52.081 0 0 1 -3.438 12.157z"/><path d="m12.52 57.11a1.749 1.749 0 0 0 2.346-.79c.424-.856.87-1.7 1.326-2.506a1.75 1.75 0 1 0 -3.048-1.72c-.486.861-.961 1.759-1.414 2.671a1.75 1.75 0 0 0 .79 2.345z"/><path d="m35.713 60.293a4.75 4.75 0 1 0 -4.75-4.75 4.755 4.755 0 0 0 4.75 4.75zm0-6a1.25 1.25 0 1 1 -1.25 1.25 1.251 1.251 0 0 1 1.25-1.25z"/><path d="m50.346 62.25a4.75 4.75 0 1 0 4.754 4.75 4.756 4.756 0 0 0 -4.754-4.75zm0 6a1.25 1.25 0 1 1 1.254-1.25 1.252 1.252 0 0 1 -1.254 1.25z"/><path d="m48.229 89.731a4.75 4.75 0 1 0 4.75-4.75 4.756 4.756 0 0 0 -4.75 4.75zm6 0a1.25 1.25 0 1 1 -1.25-1.25 1.252 1.252 0 0 1 1.25 1.25z"/><path d="m25.831 67a4.75 4.75 0 1 0 -4.75 4.75 4.756 4.756 0 0 0 4.75-4.75zm-4.75 1.25a1.25 1.25 0 1 1 1.25-1.25 1.251 1.251 0 0 1 -1.25 1.25z"/><path d="m13.7 89.731a4.75 4.75 0 1 0 4.75-4.75 4.756 4.756 0 0 0 -4.75 4.75zm6 0a1.25 1.25 0 1 1 -1.25-1.25 1.251 1.251 0 0 1 1.25 1.25z"/><path d="m35.713 108.558a4.75 4.75 0 1 0 -4.75-4.75 4.755 4.755 0 0 0 4.75 4.75zm0-6a1.25 1.25 0 1 1 -1.25 1.25 1.25 1.25 0 0 1 1.25-1.25z"/><path d="m35.713 85.481a4.75 4.75 0 1 0 -4.75-4.75 4.755 4.755 0 0 0 4.75 4.75zm0-6a1.25 1.25 0 1 1 -1.25 1.25 1.251 1.251 0 0 1 1.25-1.25z"/></g></g></svg>